<svg data-name="Layer 1" xmlns="http://www.w3.org/2000/svg" xmlns:xlink="http://www.w3.org/1999/xlink" viewBox="0 0 904 754.77" class="featureSvg__8YW" alt="Searchpe"><defs><linearGradient id="a" x1="205.5" y1="458.72" x2="205.5" gradientUnits="userSpaceOnUse"><stop offset="0" stop-color="gray" stop-opacity="0.25"></stop><stop offset="0.54" stop-color="gray" stop-opacity="0.12"></stop><stop offset="1" stop-color="gray" stop-opacity="0.1"></stop></linearGradient><linearGradient id="b" x1="347.94" y1="120.14" x2="347.94" y2="40.02" xlink:href="#a"></linearGradient><linearGradient id="c" x1="347.94" y1="269.14" x2="347.94" y2="189.02" xlink:href="#a"></linearGradient><linearGradient id="d" x1="347.94" y1="417.14" x2="347.94" y2="337.02" xlink:href="#a"></linearGradient><linearGradient id="e" x1="660.91" y1="754.77" x2="660.91" y2="737.77" xlink:href="#a"></linearGradient><linearGradient id="f" x1="810" y1="732" x2="810" y2="417" xlink:href="#a"></linearGradient></defs><title>server</title><path fill="url(#a)" d="M0 0h411v458.72H0z"></path><path fill="#fff" d="M6.79 306.27H404.2v142.46H6.79z"></path><path fill="#64ffda" d="M39.41 340.06h15.4v73h-15.4z"></path><path fill="#64ffda" d="M69.81 340.06h15.4v73h-15.4z" opacity="0.7"></path><path fill="#64ffda" d="M100.22 340.06h15.4v73h-15.4z" opacity="0.6"></path><path fill="#64ffda" d="M130.62 340.06h15.4v73h-15.4zM161.02 340.06h15.4v73h-15.4z" opacity="0.5"></path><path fill="#64ffda" d="M191.42 340.06h15.4v73h-15.4z" opacity="0.4"></path><path fill="#64ffda" d="M221.83 340.06h15.4v73h-15.4z" opacity="0.3"></path><circle cx="347.94" cy="376.09" r="37.16" fill="#2b9af3"></circle><path fill="#fff" d="M6.79 158.26H404.2v142.46H6.79z"></path><path fill="#64ffda" d="M39.41 192.05h15.4v73h-15.4z"></path><path fill="#64ffda" d="M69.81 192.05h15.4v73h-15.4z" opacity="0.7"></path><path fill="#64ffda" d="M100.22 192.05h15.4v73h-15.4z" opacity="0.6"></path><path fill="#64ffda" d="M130.62 192.05h15.4v73h-15.4zM161.02 192.05h15.4v73h-15.4z" opacity="0.5"></path><path fill="#64ffda" d="M191.42 192.05h15.4v73h-15.4z" opacity="0.4"></path><path fill="#64ffda" d="M221.83 192.05h15.4v73h-15.4z" opacity="0.3"></path><circle cx="347.94" cy="228.09" r="37.16" fill="#2b9af3"></circle><path fill="#fff" d="M6.79 10.25H404.2v142.46H6.79z"></path><path fill="#64ffda" d="M39.41 44.05h15.4v73h-15.4z"></path><path fill="#64ffda" d="M69.81 44.05h15.4v73h-15.4z" opacity="0.7"></path><path fill="#64ffda" d="M100.22 44.05h15.4v73h-15.4z" opacity="0.6"></path><path fill="#64ffda" d="M130.62 44.05h15.4v73h-15.4zM161.02 44.05h15.4v73h-15.4z" opacity="0.5"></path><path fill="#64ffda" d="M191.42 44.05h15.4v73h-15.4z" opacity="0.4"></path><path fill="#64ffda" d="M221.83 44.05h15.4v73h-15.4z" opacity="0.3"></path><circle cx="347.94" cy="80.08" r="40.06" fill="url(#b)"></circle><circle cx="347.94" cy="229.08" r="40.06" fill="url(#c)"></circle><circle cx="347.94" cy="377.08" r="40.06" fill="url(#d)"></circle><circle cx="347.94" cy="80.08" r="37.16" fill="#2b9af3"></circle><g opacity="0.7" fill="none" stroke="#2b9af3" stroke-linecap="round" stroke-linejoin="round" stroke-width="4"><path d="M461 158.67h6"></path><path stroke-dasharray="12.52 33.38" d="M500.38 158.67h166.93"></path><path d="M684 158.67h6v6"></path><path stroke-dasharray="11.93 31.8" d="M690 196.48v115.29"></path><path d="M690 327.67v6"></path></g><g opacity="0.7" fill="none" stroke="#2b9af3" stroke-linecap="round" stroke-linejoin="round" stroke-width="4"><path d="m367.58 611.67-6-.03"></path><path stroke-dasharray="12.52 33.38" d="m328.2 611.48-166.92-.8"></path><path d="m144.58 610.61-6-.03.04-6"></path><path stroke-dasharray="11.55 30.79" d="m138.82 573.79.46-69.27"></path><path d="m139.38 489.12.04-6"></path></g><path d="M721.21 630.46s11.92 80.48 82.27 107.31h-285c70.35-26.83 82.27-107.31 82.27-107.31Z" fill="#e0e0e0"></path><path fill="url(#e)" d="M517.09 737.77h287.65v17H517.09z"></path><path fill="#f5f5f5" d="M518.52 737.77h284.96v13.12H518.52z"></path><path d="M1041.25 417h-462.5A10.75 10.75 0 0 0 568 427.75v291.39A12.86 12.86 0 0 0 580.86 732h458.28a12.86 12.86 0 0 0 12.86-12.86V427.75a10.75 10.75 0 0 0-10.75-10.75Z" transform="translate(-148 -72.62)" fill="url(#f)"></path><path d="M436.57 348.78h448.86a10.75 10.75 0 0 1 10.75 10.75V609H425.82V359.54a10.75 10.75 0 0 1 10.75-10.76Z" fill="#fff"></path><path d="M883.32 651.92H438.68a12.86 12.86 0 0 1-12.86-12.86V609h470.36v30.06a12.86 12.86 0 0 1-12.86 12.86Z" fill="#f5f5f5"></path><path fill="#2b9af3" d="M449.07 369.86h425.65v210.06H449.07z"></path><path fill="#fff" opacity="0.2" d="M465.91 383.8h409.08v-14.01H449.34v210.06h16.57V383.8z"></path></svg>